{
    "asset" : {
        "generator" : "Khronos Blender glTF 2.0 I/O",
        "version" : "2.0"
    },
    "scene" : 0,
    "scenes" : [
        {
            "name" : "Scene",
            "nodes" : [
                0,
                1,
                2,
                3,
                4,
                5
            ]
        }
    ],
    "nodes" : [
        {
            "mesh" : 0,
            "scale" : [
                0.4536014795303345,
                0.4536014795303345,
                0.4536014795303345
            ],
            "name" : "Icosphere",
            "rotation" : [
                -0.2588190734386444,
                0,
                0,
                0.965925931930542
            ]
        },
        {
            "mesh" : 1,
            "scale" : [
                0.29005980491638184,
                0.1789262741804123,
                0.2900598347187042
            ],
            "name" : "Torus.002",
            "rotation" : [
                0,
                0,
                -0.1736481785774231,
                0.9848077893257141
            ]
        },
        {
            "mesh" : 2,
            "scale" : [
                0.16622968018054962,
                0.10254042595624924,
                0.16622969508171082
            ],
            "name" : "Torus.000",
            "rotation" : [
                0,
                0,
                -0.1736481785774231,
                0.9848077893257141
            ]
        },
        {
            "mesh" : 3,
            "scale" : [
                0.22320793569087982,
                0.1376880258321762,
                0.22320793569087982
            ],
            "name" : "Torus.001",
            "rotation" : [
                0,
                0,
                -0.1736481785774231,
                0.9848077893257141
            ]
        },
        {
            "rotation" : [
                0.16907575726509094,
                0.7558802962303162,
                -0.27217137813568115,
                0.570947527885437
            ],
            "name" : "Lamp",
            "translation" : [
                4.076245307922363,
                5.903861999511719,
                -1.0054539442062378
            ]
        },
        {
            "rotation" : [
                0.483536034822464,
                0.33687159419059753,
                -0.20870360732078552,
                0.7804827094078064
            ],
            "name" : "Camera",
            "translation" : [
                7.481131553649902,
                5.34366512298584,
                6.5076398849487305
            ]
        }
    ],
    "animations" : [
        {
            "channels" : [
                {
                    "target" : {
                        "node" : 0,
                        "path" : "rotation"
                    },
                    "sampler" : 0
                }
            ],
            "samplers" : [
                {
                    "input" : 16,
                    "interpolation" : "STEP",
                    "output" : 17
                }
            ],
            "name" : "IcosphereAction.001"
        },
        {
            "channels" : [
                {
                    "target" : {
                        "node" : 1,
                        "path" : "rotation"
                    },
                    "sampler" : 0
                }
            ],
            "samplers" : [
                {
                    "input" : 16,
                    "interpolation" : "STEP",
                    "output" : 18
                }
            ],
            "name" : "Torus.002Action"
        },
        {
            "channels" : [
                {
                    "target" : {
                        "node" : 2,
                        "path" : "rotation"
                    },
                    "sampler" : 0
                }
            ],
            "samplers" : [
                {
                    "input" : 16,
                    "interpolation" : "STEP",
                    "output" : 19
                }
            ],
            "name" : "Torus.000Action"
        },
        {
            "channels" : [
                {
                    "target" : {
                        "node" : 3,
                        "path" : "rotation"
                    },
                    "sampler" : 0
                }
            ],
            "samplers" : [
                {
                    "input" : 16,
                    "interpolation" : "STEP",
                    "output" : 20
                }
            ],
            "name" : "Torus.001Action"
        }
    ],
    "materials" : [
        {
            "emissiveFactor" : [
                0,
                0,
                0
            ],
            "name" : "Planet",
            "pbrMetallicRoughness" : {
                "roughnessFactor" : 1,
                "baseColorTexture" : {
                    "index" : 0,
                    "texCoord" : 0
                },
                "metallicFactor" : 1,
                "baseColorFactor" : [
                    1,
                    1,
                    1,
                    1
                ]
            }
        },
        {
            "emissiveFactor" : [
                0,
                0,
                0
            ],
            "name" : "Outter Ring",
            "pbrMetallicRoughness" : {
                "roughnessFactor" : 1,
                "baseColorTexture" : {
                    "index" : 1,
                    "texCoord" : 0
                },
                "metallicFactor" : 1,
                "baseColorFactor" : [
                    1,
                    1,
                    1,
                    1
                ]
            }
        },
        {
            "emissiveFactor" : [
                0,
                0,
                0
            ],
            "name" : "Inner Ring",
            "pbrMetallicRoughness" : {
                "roughnessFactor" : 1,
                "baseColorTexture" : {
                    "index" : 2,
                    "texCoord" : 0
                },
                "metallicFactor" : 1,
                "baseColorFactor" : [
                    1,
                    1,
                    1,
                    1
                ]
            }
        },
        {
            "emissiveFactor" : [
                0,
                0,
                0
            ],
            "name" : "Middle Ring",
            "pbrMetallicRoughness" : {
                "roughnessFactor" : 1,
                "baseColorTexture" : {
                    "index" : 3,
                    "texCoord" : 0
                },
                "metallicFactor" : 1,
                "baseColorFactor" : [
                    1,
                    1,
                    1,
                    1
                ]
            }
        }
    ],
    "meshes" : [
        {
            "name" : "Icosphere.001",
            "primitives" : [
                {
                    "attributes" : {
                        "TEXCOORD_0" : 0,
                        "JOINTS_0" : 1,
                        "POSITION" : 2,
                        "NORMAL" : 3,
                        "WEIGHTS_0" : 4
                    },
                    "indices" : 5,
                    "material" : 0
                }
            ]
        },
        {
            "name" : "Torus.003",
            "primitives" : [
                {
                    "attributes" : {
                        "TEXCOORD_0" : 6,
                        "POSITION" : 7,
                        "NORMAL" : 8
                    },
                    "indices" : 9,
                    "material" : 1
                }
            ]
        },
        {
            "name" : "Torus.002",
            "primitives" : [
                {
                    "attributes" : {
                        "TEXCOORD_0" : 10,
                        "POSITION" : 11,
                        "NORMAL" : 12
                    },
                    "indices" : 9,
                    "material" : 2
                }
            ]
        },
        {
            "name" : "Torus.001",
            "primitives" : [
                {
                    "attributes" : {
                        "TEXCOORD_0" : 13,
                        "POSITION" : 14,
                        "NORMAL" : 15
                    },
                    "indices" : 9,
                    "material" : 3
                }
            ]
        }
    ],
    "textures" : [
        {
            "source" : 0
        },
        {
            "source" : 1
        },
        {
            "source" : 2
        },
        {
            "source" : 3
        }
    ],
    "images" : [
        {
            "name" : "Planet",
            "mimeType" : "image/png",
            "bufferView" : 6
        },
        {
            "name" : "Outter Ring Texture.png",
            "mimeType" : "image/png",
            "bufferView" : 11
        },
        {
            "name" : "Inner Ring",
            "mimeType" : "image/png",
            "bufferView" : 15
        },
        {
            "name" : "Middle Ring",
            "mimeType" : "image/png",
            "bufferView" : 19
        }
    ],
    "accessors" : [
        {
            "count" : 960,
            "componentType" : 5126,
            "type" : "VEC2",
            "bufferView" : 0
        },
        {
            "count" : 960,
            "componentType" : 5123,
            "type" : "VEC4",
            "bufferView" : 1
        },
        {
            "max" : [
                0.9810464978218079,
                1,
                0.9582388401031494
            ],
            "min" : [
                -0.9914311766624451,
                -1,
                -1.0788557529449463
            ],
            "type" : "VEC3",
            "bufferView" : 2,
            "componentType" : 5126,
            "count" : 960
        },
        {
            "count" : 960,
            "componentType" : 5126,
            "type" : "VEC3",
            "bufferView" : 3
        },
        {
            "count" : 960,
            "componentType" : 5126,
            "type" : "VEC4",
            "bufferView" : 4
        },
        {
            "count" : 960,
            "componentType" : 5123,
            "type" : "SCALAR",
            "bufferView" : 5
        },
        {
            "count" : 760,
            "componentType" : 5126,
            "type" : "VEC2",
            "bufferView" : 7
        },
        {
            "max" : [
                4.099987506866455,
                0.2377641350030899,
                4.0909929275512695
            ],
            "min" : [
                -4.038325309753418,
                -0.2377641350030899,
                -4.08905553817749
            ],
            "type" : "VEC3",
            "bufferView" : 8,
            "componentType" : 5126,
            "count" : 760
        },
        {
            "count" : 760,
            "componentType" : 5126,
            "type" : "VEC3",
            "bufferView" : 9
        },
        {
            "count" : 1140,
            "componentType" : 5123,
            "type" : "SCALAR",
            "bufferView" : 10
        },
        {
            "count" : 760,
            "componentType" : 5126,
            "type" : "VEC2",
            "bufferView" : 12
        },
        {
            "max" : [
                4.099987506866455,
                0.2377641350030899,
                4.0909929275512695
            ],
            "min" : [
                -4.038325309753418,
                -0.2377641350030899,
                -4.08905553817749
            ],
            "type" : "VEC3",
            "bufferView" : 13,
            "componentType" : 5126,
            "count" : 760
        },
        {
            "count" : 760,
            "componentType" : 5126,
            "type" : "VEC3",
            "bufferView" : 14
        },
        {
            "count" : 760,
            "componentType" : 5126,
            "type" : "VEC2",
            "bufferView" : 16
        },
        {
            "max" : [
                4.099987506866455,
                0.2377641350030899,
                4.0909929275512695
            ],
            "min" : [
                -4.038325309753418,
                -0.2377641350030899,
                -4.08905553817749
            ],
            "type" : "VEC3",
            "bufferView" : 17,
            "componentType" : 5126,
            "count" : 760
        },
        {
            "count" : 760,
            "componentType" : 5126,
            "type" : "VEC3",
            "bufferView" : 18
        },
        {
            "max" : [
                4.998263888889093
            ],
            "min" : [
                0
            ],
            "type" : "SCALAR",
            "bufferView" : 20,
            "componentType" : 5126,
            "count" : 2880
        },
        {
            "count" : 2880,
            "componentType" : 5126,
            "type" : "VEC4",
            "bufferView" : 21
        },
        {
            "count" : 2880,
            "componentType" : 5126,
            "type" : "VEC4",
            "bufferView" : 22
        },
        {
            "count" : 2880,
            "componentType" : 5126,
            "type" : "VEC4",
            "bufferView" : 23
        },
        {
            "count" : 2880,
            "componentType" : 5126,
            "type" : "VEC4",
            "bufferView" : 24
        }
    ],
    "bufferViews" : [
        {
            "byteLength" : 7680,
            "byteOffset" : 0,
            "buffer" : 0
        },
        {
            "byteLength" : 7680,
            "byteOffset" : 7680,
            "buffer" : 0
        },
        {
            "byteLength" : 11520,
            "byteOffset" : 15360,
            "buffer" : 0
        },
        {
            "byteLength" : 11520,
            "byteOffset" : 26880,
            "buffer" : 0
        },
        {
            "byteLength" : 15360,
            "byteOffset" : 38400,
            "buffer" : 0
        },
        {
            "byteLength" : 1920,
            "byteOffset" : 53760,
            "buffer" : 0
        },
        {
            "byteLength" : 189600,
            "byteOffset" : 55680,
            "buffer" : 0
        },
        {
            "byteLength" : 6080,
            "byteOffset" : 245280,
            "buffer" : 0
        },
        {
            "byteLength" : 9120,
            "byteOffset" : 251360,
            "buffer" : 0
        },
        {
            "byteLength" : 9120,
            "byteOffset" : 260480,
            "buffer" : 0
        },
        {
            "byteLength" : 2280,
            "byteOffset" : 269600,
            "buffer" : 0
        },
        {
            "byteLength" : 829403,
            "byteOffset" : 271880,
            "buffer" : 0
        },
        {
            "byteLength" : 6080,
            "byteOffset" : 1101284,
            "buffer" : 0
        },
        {
            "byteLength" : 9120,
            "byteOffset" : 1107364,
            "buffer" : 0
        },
        {
            "byteLength" : 9120,
            "byteOffset" : 1116484,
            "buffer" : 0
        },
        {
            "byteLength" : 863383,
            "byteOffset" : 1125604,
            "buffer" : 0
        },
        {
            "byteLength" : 6080,
            "byteOffset" : 1988988,
            "buffer" : 0
        },
        {
            "byteLength" : 9120,
            "byteOffset" : 1995068,
            "buffer" : 0
        },
        {
            "byteLength" : 9120,
            "byteOffset" : 2004188,
            "buffer" : 0
        },
        {
            "byteLength" : 476899,
            "byteOffset" : 2013308,
            "buffer" : 0
        },
        {
            "byteLength" : 11520,
            "byteOffset" : 2490208,
            "buffer" : 0
        },
        {
            "byteLength" : 46080,
            "byteOffset" : 2501728,
            "buffer" : 0
        },
        {
            "byteLength" : 46080,
            "byteOffset" : 2547808,
            "buffer" : 0
        },
        {
            "byteLength" : 46080,
            "byteOffset" : 2593888,
            "buffer" : 0
        },
        {
            "byteLength" : 46080,
            "byteOffset" : 2639968,
            "buffer" : 0
        }
    ],
    "buffers" : [
        {
            "byteLength" : 2686048,
            "uri" : "data:application/octet-stream;base64,"
        }
    ]
}
